<svg xmlns="http://www.w3.org/2000/svg" width="224.633" height="31.67" viewBox="0 0 224.633 31.67"><g id="computer-gross.logo.17a0d4db" transform="translate(0 -1.59)"><path id="Tracciato_1" data-name="Tracciato 1" d="M25.116,16.3a7.747,7.747,0,0,1-2.594,1.455,9.544,9.544,0,0,1-3.037.475,9.935,9.935,0,0,1-2.879-.443,7.039,7.039,0,0,1-2.5-1.329,6.774,6.774,0,0,1-1.772-2.215,6.925,6.925,0,0,1-.664-3.132,6.666,6.666,0,0,1,2.436-5.379,7.983,7.983,0,0,1,2.5-1.36,9.935,9.935,0,0,1,2.879-.443,9.614,9.614,0,0,1,2.879.443,7.318,7.318,0,0,1,2.5,1.329L22.269,8.3A4.154,4.154,0,0,0,21,7.474a4.008,4.008,0,0,0-1.487-.285,3.075,3.075,0,0,0-1.36.285,4.462,4.462,0,0,0-1.139.854,3.161,3.161,0,0,0-.791,1.266A4.768,4.768,0,0,0,16,11.112a4.383,4.383,0,0,0,.221,1.455,2.858,2.858,0,0,0,.791,1.234,4.462,4.462,0,0,0,1.139.854,3.08,3.08,0,0,0,1.36.316,4.051,4.051,0,0,0,1.519-.285,3.449,3.449,0,0,0,1.266-.854l.095-.095Z" transform="translate(25.252 5.063)"/><path id="Tracciato_2" data-name="Tracciato 2" d="M31.691,11.112a6.925,6.925,0,0,1-.664,3.132,6.774,6.774,0,0,1-1.772,2.215,7.318,7.318,0,0,1-2.5,1.329,9.681,9.681,0,0,1-5.79,0,7.039,7.039,0,0,1-2.5-1.329,6.774,6.774,0,0,1-1.772-2.215,6.925,6.925,0,0,1-.664-3.132,6.666,6.666,0,0,1,2.436-5.379,7.983,7.983,0,0,1,2.5-1.36,9.681,9.681,0,0,1,5.79,0,7.391,7.391,0,0,1,2.5,1.36,6.666,6.666,0,0,1,2.436,5.379m-5.347,2.753a3.161,3.161,0,0,0,.791-1.266,4.706,4.706,0,0,0,.221-1.487,4.768,4.768,0,0,0-.221-1.519,2.96,2.96,0,0,0-.791-1.266,3.284,3.284,0,0,0-1.234-.791,4.072,4.072,0,0,0-1.266-.253,3.733,3.733,0,0,0-1.234.253,3.372,3.372,0,0,0-2.025,2.056,4.768,4.768,0,0,0-.221,1.519,4.383,4.383,0,0,0,.221,1.455,2.858,2.858,0,0,0,.791,1.234,3.831,3.831,0,0,0,1.234.823,3.294,3.294,0,0,0,1.234.253,3.906,3.906,0,0,0,1.266-.253,2.685,2.685,0,0,0,1.234-.759" transform="translate(34.686 5.063)"/><path id="Tracciato_3" data-name="Tracciato 3" d="M34.791,17.987H31.026V10.521a6.541,6.541,0,0,0-.158-1.171,2.771,2.771,0,0,0-.506-1.012,3.067,3.067,0,0,0-2.436-1.171A3.112,3.112,0,0,0,25.49,8.338a2.5,2.5,0,0,0-.475.759v8.922H21.25V4.13h3.765V5.4A4.974,4.974,0,0,1,26.629,4.32a5.135,5.135,0,0,1,2.025-.38,4.22,4.22,0,0,1,2.784.981,7.575,7.575,0,0,1,2.025,2.5,6.161,6.161,0,0,1,1.9-2.531A4.833,4.833,0,0,1,38.4,3.94a6.045,6.045,0,0,1,2.531.538,5.467,5.467,0,0,1,1.93,1.455A6.429,6.429,0,0,1,44.093,8.18a9.365,9.365,0,0,1,.443,2.911v6.96H40.771V11.09a10.544,10.544,0,0,0-.095-1.455A2.229,2.229,0,0,0,40.106,8.4,3.067,3.067,0,0,0,37.67,7.23,3.112,3.112,0,0,0,35.234,8.4a2.5,2.5,0,0,0-.475.759v8.827Z" transform="translate(45.982 5.085)"/><path id="Tracciato_4" data-name="Tracciato 4" d="M44.491,11.112a7.929,7.929,0,0,1-.506,2.911,6.3,6.3,0,0,1-3.638,3.7,7.649,7.649,0,0,1-2.879.538,5.921,5.921,0,0,1-4.145-1.455v4.208l-4.3,2.847V4.151h4.3V5.638a6.138,6.138,0,0,1,1.835-1.266,5.473,5.473,0,0,1,2.31-.443,7.649,7.649,0,0,1,2.879.538,6.742,6.742,0,0,1,2.215,1.455A7.155,7.155,0,0,1,43.985,8.17a7.982,7.982,0,0,1,.506,2.942m-5.347,2.753a3.161,3.161,0,0,0,.791-1.266,4.706,4.706,0,0,0,.221-1.487,4.768,4.768,0,0,0-.221-1.519,2.96,2.96,0,0,0-.791-1.266,4.462,4.462,0,0,0-1.139-.854,3.121,3.121,0,0,0-1.392-.285,4.008,4.008,0,0,0-1.487.285,3.449,3.449,0,0,0-1.266.854,3.18,3.18,0,0,0-.569.759v4.018a2.975,2.975,0,0,0,.569.759,3.779,3.779,0,0,0,2.784,1.171,3.121,3.121,0,0,0,1.392-.285,5.67,5.67,0,0,0,1.107-.886" transform="translate(62.795 5.063)"/><path id="Tracciato_5" data-name="Tracciato 5" d="M34.1,4h4.3v6.96a10.544,10.544,0,0,0,.095,1.455,2,2,0,0,0,.664,1.234,3.934,3.934,0,0,0,5.6,0,3.179,3.179,0,0,0,.569-.759V4h4.3V17.858h-4.3V16.624A5.693,5.693,0,0,1,43.5,17.731a6.673,6.673,0,0,1-2.31.38,7.649,7.649,0,0,1-2.879-.538,6.279,6.279,0,0,1-2.215-1.455,6.812,6.812,0,0,1-1.424-2.246A6.835,6.835,0,0,1,34.1,10.96Z" transform="translate(73.787 5.215)"/><path id="Tracciato_6" data-name="Tracciato 6" d="M48.25,10.751H44.992v10.5h-4.3v-10.5H39.36V7.4L44.992,2.43V7.4H48.25Z" transform="translate(85.169 1.818)"/><path id="Tracciato_7" data-name="Tracciato 7" d="M57.851,13.105,47,13.137a4.136,4.136,0,0,0,1.234,1.329A3.085,3.085,0,0,0,50,15a4.432,4.432,0,0,0,1.708-.316,2.547,2.547,0,0,0,1.234-.949l2.784,2.468a7.6,7.6,0,0,1-2.626,1.55,10.086,10.086,0,0,1-3.1.475,9.935,9.935,0,0,1-2.879-.443,7.039,7.039,0,0,1-2.5-1.329,6.774,6.774,0,0,1-1.772-2.215,6.925,6.925,0,0,1-.664-3.132,6.666,6.666,0,0,1,2.436-5.379,7.983,7.983,0,0,1,2.5-1.36A9.935,9.935,0,0,1,50,3.93a9.4,9.4,0,0,1,3.037.475A6.828,6.828,0,0,1,55.51,5.828a7.1,7.1,0,0,1,1.677,2.278,7.65,7.65,0,0,1,.664,3.037ZM47.505,8.328a2.809,2.809,0,0,0-.506.7,8.6,8.6,0,0,0-.348.791H53.39a5.974,5.974,0,0,0-.348-.791,3.551,3.551,0,0,0-.506-.7A4.462,4.462,0,0,0,51.4,7.474,3.121,3.121,0,0,0,50,7.189a3.075,3.075,0,0,0-1.36.285,4.462,4.462,0,0,0-1.139.854" transform="translate(91.293 5.063)"/><path id="Tracciato_8" data-name="Tracciato 8" d="M56.617,7.768c-.316-.19-.569-.348-.728-.443a1.8,1.8,0,0,0-.823-.158,3.779,3.779,0,0,0-2.784,1.171,3.961,3.961,0,0,0-.569.759v8.922h-4.3V4.13h4.3V5.4A5.614,5.614,0,0,1,53.548,4.32a6.73,6.73,0,0,1,2.341-.38,5.163,5.163,0,0,1,1.55.19,10.416,10.416,0,0,1,1.329.569Z" transform="translate(102.588 5.085)"/><path id="Tracciato_9" data-name="Tracciato 9" d="M65.015,7.768c-.316-.19-.57-.348-.728-.443a1.8,1.8,0,0,0-.823-.158,3.779,3.779,0,0,0-2.784,1.171,2.885,2.885,0,0,0-.538.728v8.922h-4.3V4.13h4.3V5.4A5.614,5.614,0,0,1,61.978,4.32a6.73,6.73,0,0,1,2.341-.38,5.163,5.163,0,0,1,1.55.19A10.417,10.417,0,0,1,67.2,4.7Z" transform="translate(120.829 5.085)"/><path id="Tracciato_10" data-name="Tracciato 10" d="M74.511,11.112a6.925,6.925,0,0,1-.664,3.132,6.774,6.774,0,0,1-1.772,2.215,7.318,7.318,0,0,1-2.5,1.329,9.681,9.681,0,0,1-5.79,0,7.039,7.039,0,0,1-2.5-1.329,6.774,6.774,0,0,1-1.772-2.215,6.925,6.925,0,0,1-.664-3.132,6.666,6.666,0,0,1,2.436-5.379,7.983,7.983,0,0,1,2.5-1.36,9.681,9.681,0,0,1,5.79,0,7.391,7.391,0,0,1,2.5,1.36,6.666,6.666,0,0,1,2.436,5.379m-5.347,2.753a3.161,3.161,0,0,0,.791-1.266,4.706,4.706,0,0,0,.221-1.487,4.768,4.768,0,0,0-.221-1.519,2.96,2.96,0,0,0-.791-1.266,3.137,3.137,0,0,0-1.234-.823,4.072,4.072,0,0,0-1.266-.253,3.733,3.733,0,0,0-1.234.253,3.372,3.372,0,0,0-2.025,2.056,4.34,4.34,0,0,0-.285,1.55,4.384,4.384,0,0,0,.221,1.455,2.858,2.858,0,0,0,.791,1.234,3.831,3.831,0,0,0,1.234.823,3.294,3.294,0,0,0,1.234.253,3.906,3.906,0,0,0,1.266-.253,2.58,2.58,0,0,0,1.3-.759" transform="translate(127.342 5.063)"/><path id="Tracciato_11" data-name="Tracciato 11" d="M69.675,3.93a7.767,7.767,0,0,1,2.689.475,5.954,5.954,0,0,1,2.12,1.234L72.143,8.454a3.971,3.971,0,0,0-.538-.348,3.241,3.241,0,0,0-.664-.316,2.96,2.96,0,0,0-.7-.221,2.363,2.363,0,0,0-.633-.095,1.634,1.634,0,0,0-.949.19.539.539,0,0,0-.253.411c0,.158.127.285.38.443.253.127.57.285.918.443l1.677.728A6.374,6.374,0,0,1,73,10.606a2.846,2.846,0,0,1,1.076,1.044,3.462,3.462,0,0,1,.443,1.2,8.613,8.613,0,0,1,.127,1.329,3.56,3.56,0,0,1-.475,1.867,4.184,4.184,0,0,1-1.2,1.266,4.7,4.7,0,0,1-1.677.7,7.456,7.456,0,0,1-1.835.221,8.042,8.042,0,0,1-3.227-.6,7.81,7.81,0,0,1-2.246-1.36l1.835-2.942a2.23,2.23,0,0,0,.569.348c.253.127.569.221.886.348a10.707,10.707,0,0,0,1.076.253,6.618,6.618,0,0,0,1.076.127.675.675,0,0,0,.38-.095,1.282,1.282,0,0,0,.285-.158.394.394,0,0,0,.127-.348.513.513,0,0,0-.221-.443,9.161,9.161,0,0,0-.854-.443l-1.677-.728a5.972,5.972,0,0,1-2.436-1.74,3.985,3.985,0,0,1-.791-2.4,3.873,3.873,0,0,1,.475-1.993,3.725,3.725,0,0,1,1.266-1.266,5.238,5.238,0,0,1,1.74-.664,10.813,10.813,0,0,1,1.962-.19" transform="translate(138.443 5.063)"/><path id="Tracciato_12" data-name="Tracciato 12" d="M73.325,3.93a7.767,7.767,0,0,1,2.689.475,5.954,5.954,0,0,1,2.12,1.234L75.793,8.454a3.971,3.971,0,0,0-.538-.348,3.24,3.24,0,0,0-.664-.316,2.96,2.96,0,0,0-.7-.221,2.363,2.363,0,0,0-.633-.095,1.634,1.634,0,0,0-.949.19.539.539,0,0,0-.253.411c0,.158.127.285.38.443.253.127.569.285.918.443l1.772.728a6.374,6.374,0,0,1,1.614.918,5.127,5.127,0,0,1,.981,1.076,3.462,3.462,0,0,1,.443,1.2,5.823,5.823,0,0,1,.127,1.3,3.56,3.56,0,0,1-.475,1.867,4.184,4.184,0,0,1-1.2,1.266,4.7,4.7,0,0,1-1.677.7,7.456,7.456,0,0,1-1.835.221,8.042,8.042,0,0,1-3.227-.6A7.144,7.144,0,0,1,67.63,16.3l1.835-2.942a2.229,2.229,0,0,0,.569.348c.253.127.569.221.886.348A10.706,10.706,0,0,0,72,14.307a6.618,6.618,0,0,0,1.076.127.675.675,0,0,0,.38-.095,1.282,1.282,0,0,0,.285-.158.394.394,0,0,0,.127-.348.513.513,0,0,0-.221-.443,9.16,9.16,0,0,0-.854-.443l-1.677-.728a5.972,5.972,0,0,1-2.436-1.74,3.985,3.985,0,0,1-.791-2.4,3.873,3.873,0,0,1,.475-1.993,3.725,3.725,0,0,1,1.266-1.266,5.238,5.238,0,0,1,1.74-.664,8.48,8.48,0,0,1,1.962-.221" transform="translate(146.341 5.063)"/><path id="Tracciato_13" data-name="Tracciato 13" d="M8.384,17.441a7.426,7.426,0,0,1,7.435-7.435,7.092,7.092,0,0,1,1.645.19L23.855,3.8a15.369,15.369,0,0,0-8-2.215A15.862,15.862,0,0,0,4.682,28.7l5.948-5.948a7.381,7.381,0,0,1-2.246-5.315" transform="translate(0 0)" fill="#009383"/><path id="Tracciato_14" data-name="Tracciato 14" d="M4.75,8.94a.237.237,0,0,1,.158.032A.344.344,0,0,0,4.75,8.94" transform="translate(10.278 15.904)" fill="#e30613"/><path id="Tracciato_15" data-name="Tracciato 15" d="M16.263,3.07h0A15.839,15.839,0,0,1,5,30.058H5A15.838,15.838,0,0,0,20.851,14.207,15.767,15.767,0,0,0,16.263,3.07" transform="translate(10.819 3.202)" fill="#12284c"/><path id="Tracciato_16" data-name="Tracciato 16" d="M4.54,8.91h0c.221.032.411.063.633.095-.19-.032-.411-.063-.633-.095" transform="translate(9.824 15.839)" fill="#12284c"/><path id="Tracciato_17" data-name="Tracciato 17" d="M4.8,8.94c.19,0,.38.032.569.032A3.439,3.439,0,0,1,4.8,8.94" transform="translate(10.386 15.904)" fill="#12284c"/><path id="Tracciato_18" data-name="Tracciato 18" d="M21.586,3.092l-.032-.032L15.67,9.04l-5.252,5.347H17.79A7.469,7.469,0,0,1,10.323,21.7h-.095a3.439,3.439,0,0,1-.569-.032.237.237,0,0,1-.158-.032c-.221-.032-.443-.063-.633-.095L2.761,27.643l-.221.38a15.539,15.539,0,0,0,7.783,2.056A15.839,15.839,0,0,0,21.586,3.092" transform="translate(5.496 3.181)" fill="#e30613"/><path id="Tracciato_19" data-name="Tracciato 19" d="M61.617,4.161V5.648a6.137,6.137,0,0,0-1.835-1.266A5.423,5.423,0,0,0,57.5,3.94a7.77,7.77,0,0,0-2.879.538A6.279,6.279,0,0,0,52.41,5.933a6.669,6.669,0,0,0-1.424,2.215,8.508,8.508,0,0,0-.506,2.911,7.646,7.646,0,0,0,.506,2.879,6.27,6.27,0,0,0,1.392,2.246,6.007,6.007,0,0,0,2.215,1.455,7.649,7.649,0,0,0,2.879.538,6.673,6.673,0,0,0,2.31-.38,5.614,5.614,0,0,0,1.835-1.076,2.578,2.578,0,0,1-.19.981,3.55,3.55,0,0,1-1.076,1.329,2.22,2.22,0,0,1-.285.19,4.955,4.955,0,0,1-3.449.348L53.707,22.48c5.252,2.4,8.416.759,10.029-.823.032-.032.063-.032.095-.063s.032-.063.063-.063c.095-.095.19-.221.285-.316.063-.063.127-.158.19-.221a2.969,2.969,0,0,0,.285-.38c.032-.032.032-.063.063-.095a5.831,5.831,0,0,0,.316-.506.031.031,0,0,1,.032-.032l.095-.19h0c.063-.127.158-.285.221-.411a6.514,6.514,0,0,0,.57-2.689V4.161Zm0,8.859a3.734,3.734,0,0,1-.538.759,3.833,3.833,0,0,1-2.753,1.171,3.218,3.218,0,0,1-1.392-.285,4.462,4.462,0,0,1-1.139-.854A3.161,3.161,0,0,1,55,12.546a4.574,4.574,0,0,1-.221-1.487A4.768,4.768,0,0,1,55,9.54,2.961,2.961,0,0,1,55.8,8.274a5.349,5.349,0,0,1,1.139-.854,3.121,3.121,0,0,1,1.392-.285,4.008,4.008,0,0,1,1.487.285,3.428,3.428,0,0,1,1.8,1.614Z" transform="translate(109.231 5.085)"/></g></svg>